<?xml version="1.0" encoding="UTF-8"?>
<svg version="1.1" xmlns="http://www.w3.org/2000/svg" width="554" height="489">
<path d="M0 0 C182.82 0 365.64 0 554 0 C554 161.37 554 322.74 554 489 C371.18 489 188.36 489 0 489 C0 327.63 0 166.26 0 0 Z " fill="#FEFEFE" transform="translate(0,0)"/>
<path d="M0 0 C11.27770859 0 11.27770859 0 15.0859375 0.6640625 C15.94340576 0.81327148 16.80087402 0.96248047 17.68432617 1.11621094 C19.01620972 1.36806152 19.01620972 1.36806152 20.375 1.625 C21.32544189 1.80321289 22.27588379 1.98142578 23.25512695 2.16503906 C52.89320855 7.97517464 82.10354705 20.43117867 106 39 C106.87527344 39.66515625 107.75054687 40.3303125 108.65234375 41.015625 C119.62650555 49.54530526 129.57488044 59.36957711 139.40942383 69.16918945 C141.05821995 70.80824523 142.71744113 72.43625729 144.37695312 74.06445312 C156.24723915 85.81737694 166.1504085 98.8370118 175 113 C175.37866211 113.60473145 175.75732422 114.20946289 176.14746094 114.83251953 C183.56823239 126.87759653 188.87468875 139.84442709 194 153 C194.66708984 154.68222656 194.66708984 154.68222656 195.34765625 156.3984375 C196.11770011 159.46939088 196.11155399 161.03267561 195 164 C192.99609375 166.4296875 192.99609375 166.4296875 190.4375 168.875 C189.53128906 169.74640625 188.62507812 170.6178125 187.69140625 171.515625 C184.81897217 174.16710261 181.89994842 176.74823689 178.9296875 179.2890625 C176.15892418 181.74573119 173.597071 184.39359977 171 187.03125 C168.43694772 189.55425459 165.72654176 191.87562817 163 194.21875 C160.91662922 196.0742521 158.95718793 198.01223101 157 200 C153.80947618 203.24037576 150.47887861 206.22945548 147.03125 209.19140625 C143.53428909 212.30504645 140.27032265 215.65139835 137 219 C138.37011371 222.16496268 139.83800368 223.95394563 142.5 226.125 C145.8352546 228.9406316 148.93704828 231.88978051 152 235 C155.56230401 238.60587959 159.21617074 241.99270134 163.06640625 245.28515625 C165.86089182 247.763498 168.44545082 250.43460426 171.0625 253.09765625 C172.83246478 254.83550473 174.64906999 256.42398287 176.5625 258 C179.78876768 260.69462537 182.40614606 263.70439387 185.08203125 266.9375 C187.85934376 269.92410083 191.1325395 272.22689139 194.47265625 274.5546875 C196.30791248 277.49297496 196.08852012 278.26968783 195.5 281.59765625 C194.12183816 287.11232513 192.13592532 292.32886874 189.9375 297.5625 C189.54119385 298.51560059 189.1448877 299.46870117 188.73657227 300.45068359 C174.36226321 334.39845949 150.26292997 365.69577132 120 387 C119.44586426 387.39848145 118.89172852 387.79696289 118.32080078 388.20751953 C89.47946169 408.85984707 52.00330841 425 16 425 C16 419.06 16 413.12 16 407 C14.47375 407.33 12.9475 407.66 11.375 408 C7.32959381 408.87468242 4.28721667 409 0 409 C0 274.03 0 139.06 0 0 Z " fill="#010101" transform="translate(290,43)"/>
<path d="M0 0 C0 5.61 0 11.22 0 17 C0.99 16.67 1.98 16.34 3 16 C7.29 16 11.58 16 16 16 C16 59.23 16 102.46 16 147 C-0.17 147 -16.34 147 -33 147 C-33 141.72 -33 136.44 -33 131 C-38.28 131 -43.56 131 -49 131 C-49.33 117.14 -49.66 103.28 -50 89 C-76.63118333 107.43697308 -97.06417187 128.52179514 -110.4375 158.3125 C-110.89600342 159.33186646 -110.89600342 159.33186646 -111.36376953 160.37182617 C-114.13555297 166.82423737 -115.90192898 173.18126918 -118 180 C-79.06 180 -40.12 180 0 180 C0 185.28 0 190.56 0 196 C5.28 196 10.56 196 16 196 C16 271.57 16 347.14 16 425 C-35.83440452 425 -82.69612331 396.68936041 -119 362 C-119.80566406 361.24332031 -120.61132812 360.48664063 -121.44140625 359.70703125 C-123 358 -123 358 -123 356 C-123.84498047 355.64228516 -123.84498047 355.64228516 -124.70703125 355.27734375 C-133.38127012 350.44518683 -139.96077809 340.68346213 -146 333 C-147.22203125 331.48599609 -147.22203125 331.48599609 -148.46875 329.94140625 C-160.06506522 315.42470371 -168.8171843 299.09774536 -176 282 C-167.34424137 278.30731203 -158.6773748 274.64160455 -150 271 C-148.96182129 270.56365234 -147.92364258 270.12730469 -146.85400391 269.67773438 C-144.09469981 268.52376828 -141.3300504 267.38402065 -138.5625 266.25 C-137.73588867 265.90324219 -136.90927734 265.55648438 -136.05761719 265.19921875 C-130.34615936 262.88461355 -130.34615936 262.88461355 -127 264 C-125.63740713 266.47134081 -124.44969209 268.8663538 -123.3125 271.4375 C-122.99216797 272.13166016 -122.67183594 272.82582031 -122.34179688 273.54101562 C-120 278.69896055 -120 278.69896055 -120 281 C-117.36 280.34 -114.72 279.68 -112 279 C-111.30777344 280.4540625 -111.30777344 280.4540625 -110.6015625 281.9375 C-104.30717068 294.95738392 -97.58593654 307.96933769 -87.3984375 318.3984375 C-86 320 -86 320 -86 322 C-85.46890625 322.23589844 -84.9378125 322.47179687 -84.390625 322.71484375 C-81.29425773 324.37939413 -78.56406051 326.47100071 -75.75 328.5625 C-67.63774262 334.48976597 -58.98540694 339.50729653 -50 344 C-49.67 311.33 -49.34 278.66 -49 245 C-62.40947266 245.01740234 -62.40947266 245.01740234 -76.08984375 245.03515625 C-82.45382247 245.04091162 -88.81779924 245.04603855 -95.18177891 245.05025387 C-103.43654006 245.05580574 -111.69129116 245.0628656 -119.94604492 245.07543945 C-126.47930504 245.08538637 -133.01255759 245.09185344 -139.54582506 245.09408849 C-143.00721807 245.09539559 -146.46858942 245.09848136 -149.92997551 245.10573006 C-153.78787527 245.11374407 -157.64575357 245.11399113 -161.50366211 245.11352539 C-162.65955841 245.11712067 -163.81545471 245.12071594 -165.00637817 245.12442017 C-166.05110794 245.1230455 -167.09583771 245.12167084 -168.17222595 245.12025452 C-169.54247122 245.12163721 -169.54247122 245.12163721 -170.94039822 245.12304783 C-173 245 -173 245 -174 244 C-174.07313567 241.46950598 -174.09247527 238.96695163 -174.0625 236.4375 C-174.05798828 235.72658203 -174.05347656 235.01566406 -174.04882812 234.28320312 C-174.03700864 232.52209987 -174.01907263 230.76103964 -174 229 C-175.60681641 229.01740234 -175.60681641 229.01740234 -177.24609375 229.03515625 C-178.64322743 229.04453299 -180.04036299 229.05363331 -181.4375 229.0625 C-182.14455078 229.07087891 -182.85160156 229.07925781 -183.58007812 229.08789062 C-185.38693559 229.09653588 -187.19387603 229.05220011 -189 229 C-192.90978741 225.09021259 -191.15626861 212.17950059 -191.19067383 206.94213867 C-191.14270776 153.03196991 -172.38049121 102.27741166 -135 63 C-134.4421582 62.40960938 -133.88431641 61.81921875 -133.30957031 61.2109375 C-99.70459877 25.86322516 -49.58497453 -0.56346562 0 0 Z " fill="#010101" transform="translate(259,43)"/>
<path d="M0 0 C4.85042936 1.61680979 8.76400562 3.38448119 13.0625 6 C13.71154297 6.39372803 14.36058594 6.78745605 15.02929688 7.19311523 C32.18013065 17.79966178 48.78244334 33.57821116 56 53 C54.89041597 56.3287521 54.07455496 57.01489699 51.4375 59.1875 C48.48987358 61.68326212 45.70425934 64.24219097 43 67 C39.79970478 70.25029983 36.45775424 73.24724245 33 76.21875 C30.21251685 78.70135218 27.62570674 81.36447825 25.0078125 84.0234375 C22.40087034 86.58980469 19.65706391 88.96442175 16.86328125 91.32421875 C15.08250909 92.92579371 13.61089639 94.6161081 12.0625 96.4375 C9 99 9 99 0 99 C0 66.33 0 33.66 0 0 Z " fill="#FCFCFC" transform="translate(355,124)"/>
<path d="M0 0 C26 0 26 0 35.125 7.5625 C38.6328125 11.81640625 38.6328125 11.81640625 40.27075195 13.93261719 C43.146864 17.37112019 46.55171331 20.15538474 50 23 C51.9469171 24.60947843 53.38444629 26.01964384 55 28 C54.70745358 32.49888949 52.53837857 36.03931083 50.25 39.8125 C49.85731934 40.4612207 49.46463867 41.10994141 49.06005859 41.77832031 C37.32292627 60.59921556 20.07087668 79.96456166 0 90 C0 60.3 0 30.6 0 0 Z " fill="#FDFDFD" transform="translate(355,288)"/>
</svg>
